<svg xmlns="http://www.w3.org/2000/svg" width="200" height="100" viewBox="0 0 1200 300" enable-background="new 0 0 1200 300"><path fill="#363B47" d="M260.417 78.64v125.454h-9.756V94.638l-47.41 67.896-47.405-67.896v109.456h-9.562V78.64h10.34l46.63 67.897 46.633-67.896h10.534zm98.44 68.87v28.878c0 25.75-26.343 29.066-38.244 29.066-12.29 0-39.41-3.897-39.41-29.454 0-29.464 36.484-30.635 45.264-30.635 12.68 0 19.51 1.365 22.63 1.95 0-19.9-9.752-29.853-31.215-29.853-12.292 0-22.438 2.928-26.924 4.298v-9.37c7.024-2.34 16.78-4.488 27.508-4.488 28.097 0 40.39 13.86 40.39 39.61zm-9.562 8.587c-2.538-.394-11.118-1.755-24-1.755-11.9 0-34.53 2.734-34.53 21.66 0 17.358 18.144 20.68 29.848 20.68 11.514 0 28.682-3.122 28.682-20.293v-20.295zm111.708 1.56c0 39.412-23.02 47.997-43.314 47.997-9.56 0-18.734-1.76-26.93-4.683v39.02h-9.56V137.17c0-7.218 3.32-29.457 37.85-29.457 16 .003 41.95 6.635 41.95 49.948zm-9.758-.193c0-36.096-18.726-40.78-32.19-40.78-21.07 0-28.292 10.34-28.292 20.097v54.435c8 3.515 17.367 5.27 26.927 5.27 20.876 0 33.555-9.76 33.555-39.02zm32.3 46.63V72.98h9.757v131.114h-9.756zm114.637-46.83c0 4.29-.2 4.878-.2 5.076H525.21c.194 3.316.778 6.05 1.755 8.387 2.734 18.344 15.607 25.362 33.948 25.362 11.51 0 23.03-2.34 30.826-6.634v9.952c-8.777 4.096-20.88 6.044-31.607 6.044-21.46 0-44.875-9.167-44.875-46.818 0-15.025 4.682-50.733 42.137-50.733 40.394 0 40.784 43.12 40.784 49.36zm-72.972-3.506h63.022c0-4.688-1.173-36.683-31.418-36.683-20.483 0-30.627 13.658-31.604 36.683zM738.806 78.64v125.454h-9.753V94.638l-47.405 67.896-47.415-67.896v109.456h-9.555V78.64h10.33l46.64 67.897 46.63-67.896h10.528zm98.442 68.87v28.878c0 25.75-26.342 29.066-38.243 29.066-12.288 0-39.406-3.897-39.406-29.454 0-29.464 36.476-30.635 45.254-30.635 12.682 0 19.518 1.365 22.635 1.95 0-19.9-9.76-29.853-31.214-29.853-12.294 0-22.44 2.928-26.93 4.298v-9.37c7.03-2.34 16.783-4.488 27.51-4.488 28.097 0 40.39 13.86 40.39 39.61zm-9.56 8.587c-2.535-.394-11.125-1.755-24-1.755-11.9 0-34.53 2.734-34.53 21.66 0 17.358 18.14 20.68 29.847 20.68 11.514 0 28.684-3.122 28.684-20.293v-20.295zm32.69-46.63h9.554v94.627h-9.554v-94.627zm74.44-1.564c9.555 0 18.727 1.563 26.925 4.49V72.98h9.56v103.215c0 7.213-3.31 29.46-37.856 29.46-15.99 0-41.946-6.434-41.946-49.753 0-39.607 23.02-48 43.32-48zm-1.372 88.78c21.08 0 28.297-10.152 28.297-20.1v-54.435c-8-3.318-17.37-5.27-26.924-5.27-20.684 0-33.564 9.952-33.564 39.023 0 36.294 18.726 40.784 32.188 40.784zm119.516-17.172c0 15.22-11.707 26.147-34.335 26.147-12.488 0-22.247-3.122-29.653-6.83V188.68c8.58 4.49 18.527 7.41 29.26 7.41 14.437 0 24.976-5.457 24.976-16.578 0-28.295-53.654-12.1-53.654-45.46 0-13.462 9.167-26.337 32.188-26.337 10.15 0 18.73 2.73 25.557 5.655v9.562c-6.042-2.928-14.43-5.854-24.574-5.854-12.482 0-23.42 4.686-23.42 16.974 0 23.026 53.658 8.778 53.658 45.46z"/><path fill="#DB4A35" d="M891.796 75.217c5.878-11.457 9.63-27.344 9.63-27.344s-9.613 1.44-19.475 4.347c-4.906-13.782-15.58-29.556-15.58-29.556s-10.92 16.13-15.75 30.02c-10.372-3.217-21.002-4.81-21.002-4.81s3.725 15.765 9.56 27.206c-6.53 3.59-11.896 7.447-11.896 7.447s21.456 10.54 29.223 11.922c2.186.382 6.647 1.216 8.865 1.216 2.207 0 6.68-.834 8.854-1.22 7.768-1.382 29.234-11.92 29.234-11.92s-5.236-3.76-11.658-7.31z"/></svg>